<?xml version="1.0" encoding="UTF-8" standalone="no"?>
<!-- Created with Inkscape (http://www.inkscape.org/) -->

<svg
   xmlns:dc="http://purl.org/dc/elements/1.1/"
   xmlns:cc="http://creativecommons.org/ns#"
   xmlns:rdf="http://www.w3.org/1999/02/22-rdf-syntax-ns#"
   xmlns:svg="http://www.w3.org/2000/svg"
   xmlns="http://www.w3.org/2000/svg"
   xmlns:sodipodi="http://sodipodi.sourceforge.net/DTD/sodipodi-0.dtd"
   xmlns:inkscape="http://www.inkscape.org/namespaces/inkscape"
   width="210mm"
   height="297mm"
   viewBox="0 0 210 297"
   version="1.1"
   id="svg8"
   inkscape:version="0.92.4 (5da689c313, 2019-01-14)"
   sodipodi:docname="2060.svg">
  <defs
     id="defs2">
    <marker
       style="overflow:visible"
       refY="0.0"
       refX="0.0"
       orient="auto"
       id="DistanceX">
      <path
         id="path817"
         style="stroke:#000000; stroke-width:0.5"
         d="M 3,-3 L -3,3 M 0,-5 L  0,5" />
    </marker>
    <pattern
       y="0"
       x="0"
       width="8"
       patternUnits="userSpaceOnUse"
       id="Hatch"
       height="8">
      <path
         id="path820"
         stroke-width="0.25"
         stroke="#000000"
         linecap="square"
         d="M8 4 l-4,4" />
      <path
         id="path822"
         stroke-width="0.25"
         stroke="#000000"
         linecap="square"
         d="M6 2 l-4,4" />
      <path
         id="path824"
         stroke-width="0.25"
         stroke="#000000"
         linecap="square"
         d="M4 0 l-4,4" />
    </pattern>
    <symbol
       id="*MODEL_SPACE" />
    <symbol
       id="*PAPER_SPACE" />
  </defs>
  <sodipodi:namedview
     id="base"
     pagecolor="#ffffff"
     bordercolor="#666666"
     borderopacity="1.0"
     inkscape:pageopacity="0.0"
     inkscape:pageshadow="2"
     inkscape:zoom="1.979899"
     inkscape:cx="-482.33919"
     inkscape:cy="-2067.9336"
     inkscape:document-units="mm"
     inkscape:current-layer="layer1"
     showgrid="false"
     showguides="false"
     inkscape:window-width="3840"
     inkscape:window-height="2050"
     inkscape:window-x="-12"
     inkscape:window-y="-12"
     inkscape:window-maximized="1" />
  <metadata
     id="metadata5">
    <rdf:RDF>
      <cc:Work
         rdf:about="">
        <dc:format>image/svg+xml</dc:format>
        <dc:type
           rdf:resource="http://purl.org/dc/dcmitype/StillImage" />
        <dc:title></dc:title>
      </cc:Work>
    </rdf:RDF>
  </metadata>
  <g
     inkscape:label="Layer 1"
     inkscape:groupmode="layer"
     id="layer1">
    <path
       style="fill:#1a1a1a;fill-opacity:1;stroke:none;stroke-width:0.01322917;stroke-opacity:1"
       d="m -181.46048,813.84474 c -1.0521,0 -1.905,0.8529 -1.905,1.905 v 6.80974 c 0,0.35631 0.28884,0.64516 0.64516,0.64516 h 0.61466 c 0.35631,0 0.64518,-0.28885 0.64518,-0.64516 v -2.98323 c 0,-0.35631 0.28884,-0.64515 0.64516,-0.64515 h 0.92211 c 0.17111,0 0.33521,0.068 0.4562,0.18895 l 3.94072,3.94072 c 0.12099,0.12099 0.18895,0.28509 0.18895,0.4562 v 6.05513 c 0,0.17111 -0.068,0.33521 -0.18895,0.4562 l -3.94113,3.94113 c -0.12099,0.12099 -0.2851,0.18896 -0.4562,0.18896 h -0.9217 c -0.35632,0 -0.64516,-0.28884 -0.64516,-0.64516 V 830.53 c 0,-0.35631 -0.28887,-0.64515 -0.64518,-0.64515 h -0.61466 c -0.35632,0 -0.64516,0.28884 -0.64516,0.64515 v 17.42948 c 0,0.35632 0.28884,0.64516 0.64516,0.64516 h 0.61466 c 0.35631,0 0.64518,-0.28884 0.64518,-0.64516 v -2.98323 c 0,-0.35631 0.28884,-0.64515 0.64516,-0.64515 h 0.9217 c 0.1711,0 0.33521,0.068 0.4562,0.18895 l 3.94113,3.94111 c 0.12099,0.12099 0.18895,0.28509 0.18895,0.4562 v 3.02738 3.02739 c 0,0.17111 -0.068,0.33518 -0.18895,0.45617 l -3.94113,3.94113 c -0.12099,0.12099 -0.2851,0.18896 -0.4562,0.18896 h -0.9217 c -0.35632,0 -0.64516,-0.28885 -0.64516,-0.64516 V 855.93 c 0,-0.35631 -0.28887,-0.64515 -0.64518,-0.64515 h -0.61466 c -0.35632,0 -0.64516,0.28884 -0.64516,0.64515 v 17.42948 c 0,0.35631 0.28884,0.64516 0.64516,0.64516 h 0.61466 c 0.35631,0 0.64518,-0.28885 0.64518,-0.64516 v -2.98323 c 0,-0.35631 0.28884,-0.64515 0.64516,-0.64515 h 0.9217 c 0.1711,0 0.33521,0.068 0.4562,0.18895 l 3.94113,3.94113 c 0.12099,0.12099 0.18895,0.28507 0.18895,0.45618 v 6.05516 c 0,0.1711 -0.068,0.33521 -0.18895,0.4562 l -3.94072,3.94071 c -0.12099,0.12099 -0.28509,0.18896 -0.4562,0.18896 h -0.92211 c -0.35632,0 -0.64516,-0.28885 -0.64516,-0.64516 V 881.33 c 0,-0.35631 -0.28887,-0.64515 -0.64518,-0.64515 h -0.61466 c -0.35632,0 -0.64516,0.28884 -0.64516,0.64515 v 6.80974 c 0,1.05211 0.8529,1.905 1.905,1.905 h 6.80974 c 0.35631,0 0.64516,-0.28884 0.64516,-0.64515 v -0.61469 c 0,-0.35631 -0.28885,-0.64516 -0.64516,-0.64516 h -2.98323 c -0.35631,0 -0.64518,-0.28884 -0.64518,-0.64515 v -0.92173 c 0,-0.1711 0.068,-0.33521 0.18898,-0.4562 l 3.94111,-3.9411 c 0.12099,-0.12099 0.28509,-0.18898 0.4562,-0.18898 h 6.05516 c 0.1711,0 0.3352,0.068 0.45619,0.18898 l 3.94069,3.94069 c 0.121,0.12099 0.18899,0.28509 0.18899,0.4562 v 0.92214 c 0,0.35631 -0.28885,0.64515 -0.64516,0.64515 h -2.98323 c -0.35631,0 -0.64518,0.28885 -0.64518,0.64516 v 0.61469 c 0,0.35631 0.28887,0.64515 0.64518,0.64515 h 6.80974 c 1.0521,0 1.905,-0.85289 1.905,-1.905 V 881.33 c 0,-0.35631 -0.28887,-0.64515 -0.64518,-0.64515 h -0.61466 c -0.35632,0 -0.64516,0.28884 -0.64516,0.64515 v 2.98323 c 0,0.35631 -0.28887,0.64516 -0.64518,0.64516 h -0.9217 c -0.17111,0 -0.33521,-0.068 -0.4562,-0.18896 l -3.94113,-3.94113 c -0.12099,-0.12099 -0.18895,-0.28509 -0.18895,-0.4562 v -6.05513 c 0,-0.17111 0.068,-0.33521 0.18895,-0.4562 l 3.94072,-3.94072 c 0.12099,-0.12099 0.28509,-0.18895 0.4562,-0.18895 h 0.92211 c 0.35631,0 0.64518,0.28884 0.64518,0.64515 v 2.98323 c 0,0.35631 0.28884,0.64516 0.64516,0.64516 h 0.61466 c 0.35631,0 0.64518,-0.28885 0.64518,-0.64516 V 855.93 c 0,-0.35631 -0.28887,-0.64515 -0.64518,-0.64515 h -0.61466 c -0.35632,0 -0.64516,0.28884 -0.64516,0.64515 v 2.98323 c 0,0.35631 -0.28887,0.64516 -0.64518,0.64516 h -0.92211 c -0.17111,0 -0.33521,-0.068 -0.4562,-0.18896 l -3.94072,-3.94071 c -0.12099,-0.12099 -0.18895,-0.2851 -0.18895,-0.4562 v -3.02778 -3.02777 c 0,-0.17111 0.068,-0.33521 0.18895,-0.4562 l 3.94072,-3.94072 c 0.12099,-0.12099 0.28509,-0.18895 0.4562,-0.18895 h 0.92211 c 0.35631,0 0.64518,0.28884 0.64518,0.64515 v 2.98323 c 0,0.35632 0.28884,0.64516 0.64516,0.64516 h 0.61466 c 0.35631,0 0.64518,-0.28884 0.64518,-0.64516 V 830.53 c 0,-0.35631 -0.28887,-0.64515 -0.64518,-0.64515 h -0.61466 c -0.35632,0 -0.64516,0.28884 -0.64516,0.64515 v 2.98323 c 0,0.35632 -0.28887,0.64516 -0.64518,0.64516 h -0.92211 c -0.17111,0 -0.33521,-0.068 -0.4562,-0.18896 l -3.94072,-3.94071 c -0.12099,-0.12099 -0.18895,-0.2851 -0.18895,-0.4562 v -6.05516 c 0,-0.17111 0.068,-0.33521 0.18895,-0.4562 l 3.94113,-3.94111 c 0.12099,-0.12099 0.28509,-0.18895 0.4562,-0.18895 h 0.9217 c 0.35631,0 0.64518,0.28884 0.64518,0.64515 v 2.98323 c 0,0.35631 0.28884,0.64516 0.64516,0.64516 h 0.61466 c 0.35631,0 0.64518,-0.28885 0.64518,-0.64516 v -6.80974 c 0,-1.0521 -0.8529,-1.905 -1.905,-1.905 h -6.80974 c -0.35631,0 -0.64518,0.28885 -0.64518,0.64516 v 0.61469 c 0,0.35631 0.28887,0.64515 0.64518,0.64515 h 2.98323 c 0.35631,0 0.64516,0.28885 0.64516,0.64516 v 0.92211 c 0,0.17111 -0.068,0.33521 -0.18899,0.4562 l -3.94069,3.94072 c -0.12099,0.12099 -0.28509,0.18895 -0.45619,0.18895 h -6.05516 c -0.17111,0 -0.33521,-0.068 -0.4562,-0.18895 l -3.94111,-3.94113 c -0.12099,-0.12099 -0.18898,-0.28507 -0.18898,-0.45617 v -0.92173 c 0,-0.35631 0.28887,-0.64516 0.64518,-0.64516 h 2.98323 c 0.35631,0 0.64516,-0.28884 0.64516,-0.64515 v -0.61469 c 0,-0.35631 -0.28885,-0.64516 -0.64516,-0.64516 z m 8.81822,9.48067 a 0.99948998,0.99948998 0 0 1 0.95604,0.76088 2.66192,2.66192 0 0 1 2.04148,0 0.99948998,0.99948998 0 0 1 1.67737,-0.46827 l 0.22859,0.22862 a 0.99948998,0.99948998 0 0 1 -0.46827,1.67737 2.66192,2.66192 0 0 1 0,2.04147 0.99948998,0.99948998 0 0 1 0.46827,1.67737 l -0.22859,0.22859 a 0.99948998,0.99948998 0 0 1 -1.67737,-0.46827 2.66192,2.66192 0 0 1 -2.04148,0 0.99948998,0.99948998 0 0 1 -1.67739,0.46827 l -0.22859,-0.22859 a 0.99948998,0.99948998 0 0 1 0.46827,-1.67737 2.66192,2.66192 0 0 1 0,-2.04147 0.99948998,0.99948998 0 0 1 -0.46827,-1.67737 l 0.22859,-0.22862 a 0.99948998,0.99948998 0 0 1 0.72135,-0.29261 z m -1.05102,7.86117 h 6.05516 a 0.64515999,0.64515999 0 0 1 0.4562,0.18898 l 4.49887,4.49887 a 0.64515999,0.64515999 0 0 0 0.4562,0.18896 h 1.71119 a 0.64515999,0.64515999 0 0 1 0.64518,0.64515 v 5.07238 a 0.64515999,0.64515999 0 0 1 -0.64518,0.64518 h -1.71119 a 0.64515999,0.64515999 0 0 0 -0.4562,0.18895 l -4.49887,4.49888 a 0.64515999,0.64515999 0 0 1 -0.4562,0.18895 h -6.05516 a 0.64515999,0.64515999 0 0 1 -0.4562,-0.18895 l -4.49887,-4.49888 a 0.64515999,0.64515999 0 0 0 -0.4562,-0.18895 h -1.71077 a 0.64515999,0.64515999 0 0 1 -0.64516,-0.64518 v -5.07238 a 0.64515999,0.64515999 0 0 1 0.64516,-0.64515 h 1.71077 a 0.64515999,0.64515999 0 0 0 0.4562,-0.18896 l 4.49887,-4.49887 a 0.64515999,0.64515999 0 0 1 0.4562,-0.18898 z m 1.05102,17.53883 a 0.99948998,0.99948998 0 0 1 0.95604,0.76088 2.66192,2.66192 0 0 1 2.04148,0 0.99948998,0.99948998 0 0 1 1.67737,-0.46827 l 0.22859,0.22862 a 0.99948998,0.99948998 0 0 1 -0.46827,1.67736 2.66192,2.66192 0 0 1 0,2.04148 0.99948998,0.99948998 0 0 1 0.46827,1.67737 l -0.22859,0.22859 a 0.99948998,0.99948998 0 0 1 -1.67737,-0.46827 2.66192,2.66192 0 0 1 -2.04148,0 0.99948998,0.99948998 0 0 1 -1.67739,0.46827 l -0.22859,-0.22859 a 0.99948998,0.99948998 0 0 1 0.46827,-1.67737 2.66192,2.66192 0 0 1 0,-2.04148 0.99948998,0.99948998 0 0 1 -0.46827,-1.67736 l 0.22859,-0.22862 a 0.99948998,0.99948998 0 0 1 0.72135,-0.29261 z m -1.05102,7.86117 h 6.05516 a 0.64515999,0.64515999 0 0 1 0.4562,0.18898 l 4.49887,4.49887 a 0.64515999,0.64515999 0 0 0 0.4562,0.18896 h 1.71119 a 0.64515999,0.64515999 0 0 1 0.64518,0.64515 v 5.07238 a 0.64515999,0.64515999 0 0 1 -0.64518,0.64518 h -1.71119 a 0.64515999,0.64515999 0 0 0 -0.4562,0.18895 l -4.49887,4.49888 a 0.64515999,0.64515999 0 0 1 -0.4562,0.18895 h -6.05516 a 0.64515999,0.64515999 0 0 1 -0.4562,-0.18895 l -4.49887,-4.49888 a 0.64515999,0.64515999 0 0 0 -0.4562,-0.18895 h -1.71077 a 0.64515999,0.64515999 0 0 1 -0.64516,-0.64518 v -5.07238 a 0.64515999,0.64515999 0 0 1 0.64516,-0.64515 h 1.71077 a 0.64515999,0.64515999 0 0 0 0.4562,-0.18896 l 4.49887,-4.49887 a 0.64515999,0.64515999 0 0 1 0.4562,-0.18898 z m 1.05102,17.53882 a 0.99948998,0.99948998 0 0 1 0.95604,0.76089 2.66192,2.66192 0 0 1 2.04148,0 0.99948998,0.99948998 0 0 1 1.67737,-0.46827 l 0.22859,0.22862 a 0.99948998,0.99948998 0 0 1 -0.46827,1.67736 2.66192,2.66192 0 0 1 0,2.04148 0.99948998,0.99948998 0 0 1 0.46827,1.67737 l -0.22859,0.22859 a 0.99948998,0.99948998 0 0 1 -1.67737,-0.46827 2.66192,2.66192 0 0 1 -2.04148,0 0.99948998,0.99948998 0 0 1 -1.67739,0.46827 l -0.22859,-0.22859 a 0.99948998,0.99948998 0 0 1 0.46827,-1.67737 2.66192,2.66192 0 0 1 0,-2.04148 0.99948998,0.99948998 0 0 1 -0.46827,-1.67736 l 0.22859,-0.22862 a 0.99948998,0.99948998 0 0 1 0.72135,-0.29262 z"
       id="path1217"
       inkscape:connector-curvature="0" />
  </g>
</svg>
